<svg width="20px" height="20px" viewBox="0 0 20 20" version="1.1" xmlns="http://www.w3.org/2000/svg" xmlns:xlink="http://www.w3.org/1999/xlink">
    <g id="Page-1" stroke="none" stroke-width="0" fill="none" fill-rule="evenodd">
        <g id="dt">
            <path d="M6.92382351,8.22656991 C8.36913463,8.22656991 8.77929049,8.92969424 8.77929049,9.35938133 L8.77929049,14.0078144 C8.77929049,14.6914075 8.25194724,15.1210946 7.37304183,15.1210946 C5.47851238,15.1210946 4.50195082,13.3632838 4.50195082,11.6054729 C4.50195082,9.96484951 5.3027313,8.22656991 6.92382351,8.22656991 Z M7.17772951,7.4062582 C4.97070037,7.4062582 2.82226492,9.61328734 2.82226492,12.1718787 C2.82226492,14.2812516 4.44335712,16.0781249 6.63085504,16.0781249 C7.37304183,16.0781249 8.31054093,15.6875003 8.70116556,15.4726568 C8.74022802,15.4531255 8.77929049,15.4531255 8.77929049,15.5507817 L8.77929049,15.7851565 C8.77929049,15.9218751 8.79882172,16.1171874 8.89647787,16.1171874 C8.91600911,16.1171874 10.4394452,15.6679691 11.4550692,15.6093754 C11.5527253,15.6093754 11.5722566,15.3554694 11.5722566,15.3164069 C11.5722566,15.2578132 11.5527253,15.1015634 11.5136629,15.0820321 C11.4550692,15.0625009 10.4980388,15.1015634 10.4003827,14.73047 C10.2831953,14.1835955 10.2831953,13.4609399 10.2831953,13.2460964 L10.2831953,4.45704226 C10.2831953,3.38282453 10.4980388,2.75782513 10.4980388,2.75782513 C10.4785076,2.66016897 10.3613202,2.44532543 10.2441328,2.44532543 L10.2050704,2.44532543 C10.1464767,2.44532543 9.61913344,2.99219991 7.49022922,3.18751222 C7.39257306,3.18751222 7.37304183,3.46094946 7.37304183,3.50001192 C7.37304183,3.63673054 7.41210429,3.71485547 7.49022922,3.71485547 L7.6660103,3.71485547 C7.99804123,3.71485547 8.58397817,3.75391793 8.6621031,4.02735517 C8.74022802,4.4179798 8.77929049,4.94532543 8.77929049,5.27735398 L8.77929049,7.38672696 C8.77929049,7.62110174 8.70116556,7.73828913 8.64257187,7.73828913 C8.31054093,7.56250805 7.76366645,7.4062582 7.17772951,7.4062582 Z" id="Shape" fill="#000000" fill-rule="nonzero"></path>
            <path d="M13.3496079,8.69531947 L13.3496079,13.6562522 C13.3496079,15.3359381 14.4238256,16.1367186 15.634762,16.1367186 C16.5917923,16.1367186 17.4902289,15.5312504 17.7831974,15.2187507 C17.8027286,15.1992195 17.6074163,14.7695324 17.5097602,14.8281261 C17.412104,14.8867198 16.7675734,15.1992195 16.2988238,15.1992195 C15.4394496,15.1992195 14.8535127,14.5156264 14.8535127,13.4804712 L14.8535127,8.69531947 L17.4511665,8.69531947 C17.5878851,8.42188223 17.6464788,8.12891376 17.6464788,7.95313267 C17.6464788,7.83594529 17.5878851,7.77735159 17.4902289,7.77735159 C17.2167917,7.77735159 15.7128869,7.75782036 14.8535127,7.75782036 L14.8535127,5.82422845 C14.8535127,5.74610353 14.5019505,5.7265723 14.2675758,5.7265723 C14.2089821,5.80469722 13.8378887,6.54688402 13.3691391,7.11328973 C12.939452,7.62110174 12.4511712,8.01172637 12.1386715,8.14844499 C12.1191403,8.16797622 12.1191403,8.20703868 12.1191403,8.28516361 C12.1191403,8.44141346 12.1582028,8.69531947 12.2167965,8.69531947 L13.3496079,8.69531947 Z" id="Path" fill="#000000" fill-rule="nonzero"></path>
        </g>
    </g>
</svg>